<svg xmlns="http://www.w3.org/2000/svg" width="1024" height="1024" viewBox="0 0 1024 1024" version="1.1"><path d="M 507.917 402.368 C 507.688 402.570, 503.595 403.014, 498.821 403.355 C 488.156 404.117, 480.452 406.882, 475.669 411.665 C 469.235 418.099, 469.537 424.423, 476.747 434.247 C 483.817 443.881, 504.460 468.280, 509.045 472.421 C 513.977 476.877, 512.893 477.539, 525.895 462.137 C 553.103 429.909, 554.519 427.757, 553.755 419.803 C 552.820 410.071, 543.667 404.609, 525.555 402.975 C 514.696 401.995, 508.578 401.784, 507.917 402.368 M 396.353 718.110 C 389.712 718.944, 383.318 722.181, 376.749 728.036 C 366.801 736.903, 363.277 749.812, 368.139 759.578 C 372.855 769.052, 386.611 779.867, 405.975 789.325 C 415.984 794.214, 416.899 794.465, 425.982 794.820 C 435.173 795.180, 435.722 795.077, 441.969 791.832 C 452.772 786.219, 458 777.524, 458 765.171 C 458 750.227, 449.544 738.732, 429.834 726.880 C 417.496 719.461, 407.160 716.754, 396.353 718.110 M 612.971 719.442 C 601.864 723.535, 586.291 733.658, 579.528 741.180 C 572.733 748.738, 570.570 754.029, 570.161 764.097 C 569.717 775.053, 572.023 781.037, 579.166 787.459 C 594.005 800.801, 615.997 796.466, 645.199 774.441 C 655.692 766.527, 660.229 759.964, 660.817 751.848 C 661.319 744.917, 658.938 737.138, 654.912 732.553 C 653.335 730.757, 652.260 728.998, 652.523 728.644 C 652.785 728.290, 652.716 728.209, 652.368 728.465 C 652.021 728.721, 649.919 727.375, 647.698 725.473 C 641.635 720.284, 634.502 717.986, 624.712 718.070 C 620.196 718.109, 614.912 718.726, 612.971 719.442" stroke="none" fill="#ffdd1d" fill-rule="evenodd"/><path d="M 432.358 365.900 C 420.069 369.042, 411.996 382.480, 414.965 394.853 C 418.548 409.791, 434.375 417.230, 448.541 410.633 C 469.970 400.654, 464.440 367.613, 441 365.575 C 437.975 365.312, 434.086 365.458, 432.358 365.900 M 581.994 365.879 C 576.912 367.537, 573.115 370.048, 569.761 373.966 C 563.779 380.954, 562.341 390.744, 566.084 399 C 568.826 405.048, 571.542 407.813, 577.500 410.623 C 596.198 419.440, 615.860 401.953, 609.839 381.858 C 608.338 376.849, 602.845 370.472, 597.824 367.910 C 593.354 365.630, 585.747 364.653, 581.994 365.879" stroke="none" fill="#000000" fill-rule="evenodd"/><path d="M 492.500 168.697 C 448.616 171.027, 403.422 182.477, 363.802 201.303 C 316.900 223.589, 277.105 255.598, 242.893 298.557 C 205.033 346.097, 180.403 408.676, 174.069 473.424 C 172.705 487.358, 172.687 526.656, 174.036 540.144 C 180.217 601.902, 201.142 655.631, 239.017 707 C 256.423 730.607, 284.919 759.014, 310 777.761 C 340.900 800.858, 384.732 822.498, 421.623 832.870 C 514.292 858.924, 614.609 844.667, 695.611 793.931 C 781.513 740.125, 838.965 653.852, 853.076 557.471 C 867.526 458.775, 840.210 361.858, 776.985 287.500 C 767.389 276.215, 744.322 253.862, 732.500 244.393 C 682.329 204.208, 623.303 178.854, 562.958 171.569 C 537.029 168.438, 514.594 167.524, 492.500 168.697 M 474.008 190.583 C 401.783 198.450, 337.264 229.633, 284.958 281.954 C 252.951 313.970, 231.451 346.705, 215.185 388.188 C 194.720 440.382, 188.195 499.438, 196.595 556.441 C 209.911 646.815, 267.441 730.751, 350.279 780.667 C 371.833 793.656, 400.940 806.062, 427 813.369 C 484.935 829.612, 547.369 829.498, 604.500 813.042 C 651.868 799.399, 698.247 773.184, 733.004 740.406 C 752.343 722.167, 764.751 708.051, 778.872 688.223 C 826.431 621.446, 846.113 535.989, 832.494 455.401 C 820.613 385.097, 787.826 322.591, 738.659 276.514 C 691.828 232.627, 635.282 204.233, 573.500 193.580 C 546.735 188.964, 501.403 187.599, 474.008 190.583 M 487.629 254.550 C 421.451 263.563, 373.658 303.968, 355.113 366.581 C 350.318 382.771, 345.970 409.112, 344.436 431.270 L 343.759 441.040 332.973 450.524 C 302.347 477.453, 275.303 511.376, 258.845 543.507 C 249.941 560.891, 245.951 572.373, 245.276 582.551 C 244.661 591.845, 245.899 595.296, 251.340 599.446 C 261.998 607.575, 282.068 600.930, 311 579.693 C 316.225 575.857, 322.922 570.672, 325.882 568.170 L 331.263 563.621 330.633 567.560 C 329.226 576.355, 328.750 616.907, 329.923 628.124 C 332.302 650.891, 338.141 672.309, 346.532 689.047 C 352.667 701.286, 361.842 714.502, 369.300 721.845 L 375.745 728.189 381.623 724.222 C 389.212 719.098, 393.323 717.842, 402.346 717.889 C 414.147 717.950, 427.771 723.950, 442.260 735.467 C 452.492 743.600, 458 753.881, 458 764.848 L 458 770.622 462.750 771.803 C 490.474 778.696, 536.843 778.936, 563.648 772.324 L 569.797 770.808 570.164 763.154 C 570.598 754.101, 573.020 748.419, 579.528 741.180 C 584.965 735.133, 596.459 727.114, 606.701 722.224 C 613.591 718.934, 615.549 718.461, 623.500 718.166 C 634.111 717.772, 641.280 719.928, 647.603 725.416 C 651.303 728.627, 651.626 728.721, 654 727.283 C 659.846 723.742, 673.454 705.177, 680.922 690.555 C 697.328 658.429, 702.996 616.775, 697.386 569.561 L 696.680 563.623 699.590 566.361 C 704.951 571.407, 721.794 583.971, 730.119 589.134 C 750.378 601.699, 766.164 605.673, 775.947 600.669 C 782.527 597.304, 785.349 591.582, 784.661 583 C 783.321 566.273, 765.361 530.334, 744.685 503.003 C 729.263 482.618, 707.145 459.411, 688.372 443.916 C 685.273 441.359, 685.232 441.202, 684.057 427.417 C 678.943 367.439, 664.058 329.056, 634.459 299.522 C 604.218 269.347, 560.326 252.750, 511.699 253.103 C 503.889 253.160, 493.058 253.811, 487.629 254.550 M 433.081 323.218 C 431.200 323.728, 428.838 323.929, 427.831 323.666 C 426.824 323.403, 425.996 323.483, 425.991 323.844 C 425.982 324.581, 413.918 328.571, 412.750 328.223 C 412.337 328.101, 412 328.525, 412 329.167 C 412 329.808, 411.753 330.087, 411.452 329.785 C 411.150 329.484, 409.742 330.196, 408.323 331.369 C 404.240 334.741, 392.038 346, 392.467 346 C 392.680 346, 391.413 348.394, 389.651 351.320 C 387.889 354.245, 385.561 359.308, 384.478 362.570 C 383.395 365.831, 382.282 368.725, 382.004 369 C 381.727 369.275, 381.372 371.300, 381.216 373.500 C 381.059 375.700, 380.679 378.175, 380.371 379 C 379.267 381.956, 380.077 401.653, 381.624 409.500 C 382.492 413.900, 384.601 421.100, 386.311 425.500 C 388.021 429.900, 389.326 433.837, 389.210 434.250 C 389.095 434.663, 389.477 435, 390.059 435 C 390.641 435, 390.840 435.450, 390.500 436 C 390.160 436.550, 390.262 437, 390.725 437 C 391.829 437, 395.088 442.529, 394.474 443.360 C 394.213 443.712, 394.287 443.788, 394.637 443.529 C 395.334 443.015, 403.252 453.631, 402.786 454.455 C 402.629 454.733, 403.520 455.676, 404.767 456.549 C 406.013 457.422, 406.774 458.556, 406.458 459.068 C 406.141 459.581, 406.347 460, 406.915 460 C 408.213 460, 411.142 465.525, 410.293 466.373 C 409.949 466.718, 410.192 467, 410.833 467 C 412.401 467, 412.335 473.496, 410.750 475.202 C 410.063 475.942, 409.356 477.195, 409.179 477.986 C 408.719 480.051, 402.003 489, 400.915 489 C 400.412 489, 400.110 489.337, 400.244 489.750 C 400.603 490.855, 395.991 498, 394.918 498 C 394.413 498, 394.108 498.337, 394.241 498.750 C 394.373 499.163, 392.316 503.683, 389.670 508.796 C 384.553 518.681, 377.087 540.225, 375.044 551 C 374.367 554.575, 373.558 558.175, 373.248 559 C 372.938 559.825, 372.786 561.109, 372.910 561.853 C 373.034 562.597, 372.829 563.947, 372.455 564.853 C 371.493 567.181, 371.276 570.075, 370.451 591.501 C 369.648 612.347, 370.607 624.532, 374.186 638.963 C 375.351 643.658, 376.310 648.063, 376.319 648.750 C 376.327 649.438, 376.708 650, 377.167 650 C 377.625 650, 378 650.595, 378 651.323 C 378 653.285, 386.540 670.471, 390.051 675.573 C 391.726 678.008, 392.763 680, 392.357 680 C 391.950 680, 392.322 680.563, 393.183 681.250 C 394.044 681.938, 397.930 686.156, 401.818 690.623 C 409.040 698.923, 420.752 709.008, 429.250 714.244 C 431.863 715.854, 434 717.583, 434 718.086 C 434 718.589, 434.337 718.947, 434.750 718.882 C 436.526 718.601, 437.754 719.123, 439.792 721.021 C 440.985 722.132, 442.082 722.966, 442.231 722.874 C 443.007 722.391, 447 724.277, 447 725.126 C 447 725.672, 447.414 725.862, 447.919 725.550 C 448.425 725.237, 449.438 725.548, 450.169 726.241 C 450.901 726.933, 451.950 727.508, 452.500 727.518 C 454.485 727.554, 461 730.422, 461 731.260 C 461 731.732, 461.376 731.886, 461.835 731.602 C 462.941 730.919, 470 733.110, 470 734.136 C 470 734.577, 470.675 734.678, 471.500 734.362 C 472.325 734.045, 473 734.279, 473 734.881 C 473 735.484, 473.788 735.894, 474.750 735.794 C 477.495 735.509, 487.005 737.182, 486.582 737.876 C 485.767 739.214, 517.601 739.972, 533.241 738.987 C 537.499 738.719, 540.987 738.110, 540.991 737.633 C 540.996 737.157, 542.125 736.982, 543.500 737.245 C 544.875 737.508, 546 737.307, 546 736.798 C 546 736.290, 546.788 735.972, 547.750 736.091 C 548.712 736.210, 550.286 735.966, 551.246 735.548 C 552.207 735.131, 554.119 734.724, 555.496 734.644 C 556.872 734.565, 557.999 734.261, 557.999 733.968 C 558 733.410, 566.778 730.515, 568.500 730.505 C 569.050 730.502, 569.765 730.140, 570.090 729.700 C 570.414 729.260, 571.652 728.827, 572.840 728.737 C 574.028 728.648, 575 728.250, 575 727.855 C 575 727.459, 576.013 726.832, 577.250 726.463 C 578.487 726.093, 583.325 723.713, 588 721.174 C 592.675 718.634, 596.837 716.656, 597.250 716.778 C 597.663 716.900, 598 716.610, 598 716.133 C 598 715.349, 604.493 710.581, 606.208 710.106 C 606.598 709.998, 609.924 707.118, 613.601 703.705 C 617.277 700.292, 620.704 697.624, 621.217 697.775 C 621.729 697.926, 621.891 697.633, 621.576 697.123 C 621.261 696.614, 623.590 693.818, 626.752 690.910 C 629.913 688.002, 631.825 685.969, 631 686.392 C 630.175 686.815, 630.709 686.046, 632.186 684.684 C 633.664 683.321, 634.638 681.971, 634.351 681.684 C 634.064 681.397, 634.780 680.653, 635.942 680.031 C 637.105 679.409, 637.792 678.472, 637.469 677.950 C 637.146 677.427, 637.359 677, 637.941 677 C 638.523 677, 638.897 676.663, 638.771 676.250 C 638.427 675.125, 643.234 667, 644.243 667 C 644.724 667, 644.840 666.550, 644.500 666 C 644.160 665.450, 644.434 665, 645.108 665 C 645.782 665, 646.076 664.743, 645.762 664.428 C 645.447 664.114, 646.445 661.077, 647.978 657.678 C 649.511 654.280, 651.575 648.913, 652.565 645.750 C 653.555 642.587, 654.781 640, 655.290 640 C 655.798 640, 655.993 639.424, 655.723 638.719 C 655.452 638.015, 655.851 634.302, 656.609 630.469 C 658.794 619.419, 659.454 595.279, 657.963 581 C 657.245 574.125, 656.563 567.375, 656.449 566 C 656.334 564.625, 655.921 562.734, 655.531 561.798 C 655.142 560.862, 655.126 559.605, 655.497 559.004 C 655.869 558.404, 655.656 557.290, 655.025 556.530 C 654.394 555.770, 653.977 554.552, 654.097 553.824 C 654.217 553.096, 654.037 551.825, 653.697 551 C 652.673 548.520, 648.701 532.632, 648.634 530.750 C 648.600 529.788, 648.170 529, 647.679 529 C 647.188 529, 647.045 528.325, 647.362 527.500 C 647.678 526.675, 647.562 526, 647.104 526 C 646.327 526, 643.467 519.359, 642.799 516 C 642.634 515.175, 642.250 514.275, 641.944 514 C 640.511 512.712, 634.213 500.121, 634.738 499.595 C 635.065 499.268, 634.808 499, 634.167 499 C 633.525 499, 633 498.573, 633 498.052 C 633 497.530, 631.871 495.884, 630.490 494.395 C 629.110 492.905, 628.162 491.504, 628.385 491.282 C 628.608 491.059, 627.749 489.754, 626.478 488.381 C 625.206 487.009, 622.440 483.382, 620.333 480.321 C 617.268 475.871, 616.500 473.846, 616.500 470.212 C 616.500 467.453, 616.994 465.502, 617.756 465.248 C 618.447 465.018, 618.758 464.418, 618.447 463.915 C 618.136 463.412, 618.434 463, 619.108 463 C 619.782 463, 620.035 462.702, 619.671 462.338 C 618.884 461.550, 623.183 455.467, 626.879 452.140 C 628.320 450.842, 628.825 450.087, 628 450.463 C 627.175 450.838, 627.850 449.938, 629.500 448.463 C 631.150 446.987, 631.953 446.072, 631.284 446.428 C 630.615 446.785, 631.257 445.259, 632.711 443.038 C 634.166 440.817, 635.752 439, 636.237 439 C 636.721 439, 636.840 438.550, 636.500 438 C 636.160 437.450, 636.434 437, 637.108 437 C 637.782 437, 638.054 436.720, 637.712 436.378 C 637.370 436.036, 638.151 433.662, 639.448 431.103 C 640.745 428.544, 642.777 423.086, 643.963 418.975 C 645.149 414.864, 646.477 410.824, 646.914 409.997 C 648.012 407.919, 647.989 374, 646.889 374 C 646.400 374, 645.991 372.988, 645.979 371.750 C 645.967 370.512, 644.826 366.350, 643.442 362.500 C 642.058 358.650, 640.830 355.088, 640.713 354.583 C 640.596 354.079, 639.696 352.825, 638.714 351.797 C 637.731 350.768, 637.166 349.541, 637.458 349.068 C 637.750 348.596, 637.252 347.927, 636.351 347.581 C 635.451 347.236, 634.962 346.705, 635.266 346.401 C 635.569 346.097, 632.508 342.780, 628.463 339.029 C 621.778 332.832, 610.703 326, 607.340 326 C 606.603 326, 606 325.564, 606 325.031 C 606 324.499, 605.347 324.314, 604.548 324.620 C 603.749 324.926, 602.512 324.816, 601.798 324.375 C 601.085 323.934, 599.308 323.699, 597.850 323.852 C 596.391 324.005, 594.951 323.729, 594.648 323.240 C 593.835 321.923, 580.607 323.686, 572.500 326.191 C 568.650 327.380, 565.163 328.274, 564.750 328.177 C 564.337 328.080, 564 328.525, 564 329.167 C 564 329.808, 563.753 330.087, 563.452 329.785 C 563.150 329.484, 561.713 330.196, 560.257 331.369 C 556.794 334.157, 545.469 345.425, 545.791 345.760 C 546.242 346.232, 542.746 352.484, 541.610 353.235 C 541 353.639, 540.806 353.976, 541.180 353.985 C 541.554 353.993, 540.585 357.493, 539.027 361.763 C 537.469 366.033, 535.642 372.333, 534.967 375.763 C 534.292 379.193, 533.322 382, 532.811 382 C 532.300 382, 532.118 382.382, 532.406 382.848 C 532.694 383.314, 532.123 387.927, 531.137 393.098 L 529.344 402.500 513.838 402.590 L 498.332 402.679 496.716 394.293 C 495.826 389.680, 495.350 385.252, 495.656 384.453 C 495.963 383.654, 495.667 383, 494.999 383 C 494.213 383, 493.998 382.146, 494.390 380.583 C 494.727 379.238, 494.529 378.010, 493.943 377.814 C 493.364 377.621, 492.802 375.786, 492.695 373.736 C 492.588 371.686, 492.110 370.007, 491.633 370.004 C 491.157 370.002, 491.002 369.100, 491.290 368 C 491.577 366.900, 491.476 366, 491.065 366 C 490.653 366, 489.745 364.087, 489.046 361.750 C 487.416 356.301, 483.488 348.447, 480.207 344.079 C 478.793 342.197, 478.281 341.028, 479.069 341.480 C 479.856 341.932, 478.700 340.678, 476.500 338.693 C 474.300 336.707, 472.136 335.065, 471.691 335.042 C 471.246 335.019, 471.206 334.438, 471.601 333.750 C 471.997 333.063, 471.962 332.824, 471.523 333.220 C 471.085 333.617, 469.550 333.134, 468.113 332.148 C 462.378 328.213, 454.786 325.328, 446.725 324.021 C 443.301 323.466, 439.600 322.849, 438.500 322.651 C 437.400 322.453, 434.961 322.708, 433.081 323.218" stroke="none" fill="#0495da" fill-rule="evenodd"/><path d="M 426.293 324.443 C 405.027 329.287, 388.796 345.741, 382.342 369 C 379.559 379.027, 379.826 404.693, 382.825 415.500 C 385.928 426.679, 392.676 439.840, 401.027 451 C 404.937 456.225, 409.006 462.170, 410.068 464.210 C 413.724 471.231, 413.143 472.770, 399.162 493.153 C 385.371 513.261, 377.352 534.873, 372.320 565.500 C 369.760 581.085, 369.737 618.855, 372.280 631 C 380.007 667.894, 399.980 696.071, 433 716.662 C 483.966 748.443, 549.507 747.356, 600.108 713.891 C 610.854 706.784, 630.381 687.834, 636.370 678.700 C 646.308 663.544, 653.404 646.633, 656.688 630.275 C 659.396 616.785, 659.124 582.848, 656.168 565.597 C 650.264 531.136, 642.257 510.798, 625.359 487.337 C 621.245 481.625, 617.398 475.570, 616.809 473.882 C 615.138 469.090, 617.190 464.229, 625.719 452.779 C 641.257 431.918, 646.902 417.215, 647.711 395.500 C 648.566 372.532, 643.032 354.651, 631.055 341.675 C 619.649 329.318, 606.734 323.620, 590 323.562 C 567.019 323.482, 550.045 334.927, 541.031 356.581 C 537.747 364.468, 533.395 380.734, 530.691 395.228 L 529.249 402.956 532.874 403.612 C 545.446 405.887, 552.979 411.728, 553.755 419.803 C 554.519 427.757, 553.103 429.909, 525.895 462.137 C 512.893 477.539, 513.977 476.877, 509.045 472.421 C 504.447 468.268, 483.810 443.871, 476.701 434.185 C 469.539 424.427, 469.259 418.074, 475.706 411.627 C 479.585 407.749, 487.655 404.221, 493.556 403.823 C 495.574 403.687, 497.434 403.032, 497.689 402.367 C 498.301 400.774, 493.442 376.774, 490.335 366.037 C 483.977 344.070, 471.230 330.278, 452.500 325.103 C 445.699 323.223, 433.045 322.905, 426.293 324.443 M 429 367.017 C 419.189 371.597, 414.559 378.805, 414.559 389.500 C 414.559 400.013, 419.540 407.806, 428.718 411.652 C 433.355 413.595, 443.688 413.325, 448.509 411.135 C 453.140 409.031, 458.584 403.225, 460.756 398.073 C 463.931 390.543, 461.573 378.460, 455.701 372.165 C 449.649 365.677, 437.068 363.251, 429 367.017 M 579.353 366.628 C 570.306 369.835, 564.044 379.191, 564.044 389.500 C 564.044 396.973, 566.365 402.308, 571.713 407.129 C 576.904 411.810, 581.648 413.319, 589.578 412.814 C 594.647 412.491, 596.834 411.793, 600.217 409.415 C 613.017 400.419, 614.798 383.246, 604.078 372.199 C 597.729 365.658, 588.167 363.503, 579.353 366.628" stroke="none" fill="#fbf6d5" fill-rule="evenodd"/></svg>